<?xml version="1.0" encoding="UTF-8"?>
<svg version="1.1" xmlns="http://www.w3.org/2000/svg" width="1024" height="1536">
<path d="M0 0 C337.92 0 675.84 0 1024 0 C1024 506.88 1024 1013.76 1024 1536 C686.08 1536 348.16 1536 0 1536 C0 1029.12 0 522.24 0 0 Z " fill="#030302" transform="translate(0,0)"/>
<path d="M0 0 C21.12 0 42.24 0 64 0 C64.33 72.93 64.66 145.86 65 221 C168.95 221 272.9 221 380 221 C380 241.13 380 261.26 380 282 C373.11382813 281.94457031 366.22765625 281.88914062 359.1328125 281.83203125 C354.75763753 281.82142449 350.38293636 281.81406803 346.0078125 281.81835938 C339.07036035 281.82485623 332.13436172 281.81963792 325.19726562 281.74291992 C319.60098105 281.68178496 314.00694177 281.67464129 308.41042709 281.70416832 C306.28064899 281.7060648 304.15076135 281.68884616 302.02130508 281.65177345 C290.09909526 280.95822905 290.09909526 280.95822905 279.53656006 285.41464233 C277.039294 288.15512873 275.03286251 290.90900721 273 294 C271.00540161 295.96907043 271.00540161 295.96907043 269.25 297.4375 C268.29287109 298.24380859 268.29287109 298.24380859 267.31640625 299.06640625 C266.55199219 299.70449219 265.78757812 300.34257812 265 301 C263.92433721 301.92410303 262.8502555 302.85004809 261.77734375 303.77734375 C254.61025408 309.96768837 247.36536933 316.04607797 240 322 C238.83696932 322.95670279 237.67422522 323.91375405 236.51171875 324.87109375 C222.70329659 336.17516283 208.73037922 345.86633477 191.91796875 352.15234375 C182.75115172 355.60063771 175.66779057 361.05153849 168 367 C150.37213629 380.62602486 132.26022429 390.91325857 111 398 C109.9045278 400.23253134 109.9045278 400.23253134 109 403 C108.56042969 404.01191406 108.12085938 405.02382813 107.66796875 406.06640625 C101.04832115 421.69855559 97.92864149 437.91032432 94.88528442 454.55749512 C92.58500491 467.1399428 90.05636608 479.66763847 87.4375 492.1875 C87.25376831 493.07140411 87.07003662 493.95530823 86.8807373 494.86599731 C85.22696989 502.81256981 83.56873823 510.75230875 81.62963867 518.63500977 C81.28685631 520.03273369 81.28685631 520.03273369 80.93714905 521.45869446 C80.49991104 523.22507865 80.05529144 524.9896605 79.60154724 526.75187683 C75.88075265 541.73734603 78.07907337 555.91913064 81.48291016 570.74267578 C82.62729162 575.73840334 83.62937153 580.76211398 84.58056641 585.79785156 C84.88526372 587.39760112 85.19858074 588.99571644 85.51708984 590.59277344 C89.85206727 612.66658489 90.13816716 634.53285784 87.77832031 656.87841797 C86.95491489 665.062612 86.80641831 673.20668005 86.66796875 681.42355347 C86.42280817 694.69722259 85.81601432 707.20981853 82 720 C81.62568848 721.26183105 81.25137695 722.52366211 80.86572266 723.82373047 C79.12003635 729.6781172 77.36218186 735.52812398 75.52954102 741.35595703 C68.15766578 764.85655783 67.46436637 788.22256946 70.5 812.625 C73.47697849 836.98953958 71.30132756 858.65856524 65.30761719 882.37255859 C62.94243561 891.82599997 62.80220049 901.08580844 62.68359375 910.78125 C62.66298677 912.20471753 62.64198942 913.62817945 62.62062073 915.05163574 C62.56578615 918.77347232 62.51620889 922.49536053 62.46777344 926.21728516 C62.41727393 930.02511109 62.36173734 933.83286331 62.30664062 937.640625 C62.19953239 945.09368734 62.09798513 952.54681154 62 960 C64.97 960 67.94 960 71 960 C71 979.8 71 999.6 71 1020 C67.7 1020 64.4 1020 61 1020 C61.01879211 1021.12503433 61.01879211 1021.12503433 61.03796387 1022.27279663 C61.21298924 1032.97325631 61.36250851 1043.67399666 61.5 1054.375 C61.51781588 1055.76014423 61.51781588 1055.76014423 61.53599167 1057.17327118 C62.14035276 1104.98891794 62.08386239 1152.80645171 62.0625 1200.625 C62.06207577 1201.60235076 62.06165154 1202.57970152 62.06121445 1203.58666897 C62.049974 1229.05779025 62.0285108 1254.52889235 62 1280 C41.87 1280 21.74 1280 1 1280 C1 1194.53 1 1109.06 1 1021 C-1.97 1021 -4.94 1021 -8 1021 C-8 1000.87 -8 980.74 -8 960 C-5.03 960 -2.06 960 1 960 C1.0084726 952.79056859 0.98311679 945.58198368 0.9197216 938.37280655 C0.89120436 935.02146859 0.87571889 931.67136789 0.87988281 928.31982422 C0.89354577 910.19590469 -0.8609235 893.5505881 -5.26190186 875.95904541 C-6.09075294 872.63617025 -6.85089593 869.30173522 -7.59658813 865.95944214 C-8.57725484 861.56442031 -9.60589234 857.18024151 -10.62890625 852.79492188 C-10.91121094 851.56451172 -11.19351562 850.33410156 -11.484375 849.06640625 C-11.72897461 848.01396729 -11.97357422 846.96152832 -12.22558594 845.87719727 C-14.34278088 835.27720581 -15.29938064 825.09506426 -15.34375 814.28515625 C-15.35745657 812.89911322 -15.37225269 811.51308059 -15.38806152 810.12705994 C-15.43567736 805.77226914 -15.46888813 801.41743576 -15.5 797.0625 C-15.69224625 770.36794902 -17.09931969 744.82391963 -22.25 718.5625 C-22.65619808 716.44656332 -23.06137716 714.33043079 -23.46557617 712.21411133 C-25.20769548 703.11841059 -26.99069499 694.03081117 -28.78515625 684.9453125 C-31.78322712 669.74646335 -34.4757929 654.55719616 -36.55810547 639.20288086 C-36.86733482 636.961566 -37.19612162 634.72290219 -37.53955078 632.48657227 C-38.84351087 623.65308753 -39.37261234 615.02257732 -39.37060547 606.11108398 C-39.37500586 603.93460231 -39.41159396 601.7601145 -39.44921875 599.58398438 C-39.52832879 590.09908618 -38.16020242 582.02294447 -35 573 C-34.78678101 572.38144135 -34.57356201 571.76288269 -34.35388184 571.12557983 C-32.53422826 565.85430948 -30.62601893 560.61634312 -28.70629883 555.38085938 C-21.38696256 535.36501594 -19.4887371 519.05530533 -23.67578125 498.06640625 C-23.96398224 496.57662166 -24.25149593 495.08670397 -24.53837585 493.59666443 C-25.14112783 490.48609012 -25.75522021 487.37802503 -26.37719727 484.27124023 C-26.99787767 481.16550816 -27.60187257 478.05736943 -28.1887207 474.94506836 C-31.40479035 457.89544396 -35.16486797 441.24921926 -40.66796875 424.77734375 C-40.89666468 424.0881592 -41.1253606 423.39897465 -41.36098671 422.68890572 C-45.39531311 409.17648861 -45.39531311 409.17648861 -54.14013672 398.73168945 C-55.30818848 398.19761475 -56.47624023 397.66354004 -57.6796875 397.11328125 C-58.32063354 396.80902222 -58.96157959 396.50476318 -59.62194824 396.19128418 C-60.98905713 395.54439061 -62.36159487 394.90886296 -63.73895264 394.28408813 C-67.38624463 392.62510543 -70.98756299 390.87109461 -74.59375 389.125 C-75.31541351 388.77782425 -76.03707703 388.4306485 -76.78060913 388.07295227 C-90.30251094 381.51860971 -102.87240498 373.46555351 -114.8125 364.375 C-122.82953595 358.28294027 -131.4762057 354.18843229 -140.7043457 350.22021484 C-152.02218645 345.32870184 -161.56951438 338.89109753 -171 331 C-171.49757813 330.58733887 -171.99515625 330.17467773 -172.5078125 329.74951172 C-183.9657258 320.24240693 -194.85830387 310.2249676 -205.4375 299.75 C-206.20731201 298.99323975 -206.97712402 298.23647949 -207.77026367 297.45678711 C-208.87204956 296.35669312 -208.87204956 296.35669312 -209.99609375 295.234375 C-210.64763428 294.58694336 -211.2991748 293.93951172 -211.97045898 293.27246094 C-214 291 -214 291 -214.96540451 289.27799511 C-216.58167802 286.4898781 -217.82232157 284.39004408 -220.970994 283.34721184 C-223.43324064 283.09738467 -225.81365365 283.0685547 -228.28833008 283.11352539 C-229.21564941 283.10274963 -230.14296875 283.09197388 -231.09838867 283.08087158 C-234.15624789 283.05351466 -237.21166469 283.07534596 -240.26953125 283.09765625 C-242.39232412 283.08827198 -244.51510545 283.0758147 -246.63786316 283.06040955 C-252.21940922 283.02815629 -257.80013444 283.03763628 -263.38171387 283.05578613 C-270.08154751 283.06889735 -276.78125783 283.03021466 -283.48101044 283.00020599 C-293.65446495 282.96044114 -303.82584864 282.98649876 -314 283 C-314 262.87 -314 242.74 -314 222 C-159.065 221.505 -159.065 221.505 -1 221 C-0.67 148.07 -0.34 75.14 0 0 Z " fill="#FDFDFD" transform="translate(479,113)"/>
<path d="M0 0 C-7.17054288 5.85443058 -14.706367 10.7588811 -22.6875 15.4375 C-23.63826416 15.99518066 -24.58902832 16.55286133 -25.56860352 17.12744141 C-29.9359577 19.6737983 -34.31811826 22.18629656 -38.7421875 24.6328125 C-46.52373787 28.98333201 -53.2492632 33.41996476 -59.45336914 39.89086914 C-65.3354871 45.86996174 -72.91435576 48.03865207 -80.69970703 50.68774414 C-92.24801297 54.64119041 -102.56553546 59.71005356 -113 66 C-121.77737149 71.270189 -128.35074882 74.83360731 -138.75 75.375 C-150.21824105 76.13392772 -158.789966 80.74949475 -168.54394531 86.47045898 C-172.98574515 89.04426234 -176.99634063 90.82188973 -182 92 C-183.00109515 88.68929162 -183.10356134 85.69915231 -183.0625 82.25 C-183.05347656 81.26515625 -183.04445313 80.2803125 -183.03515625 79.265625 C-183.02355469 78.51796875 -183.01195312 77.7703125 -183 77 C-180.36 78.65 -177.72 80.3 -175 82 C-174.86155093 78.85259115 -174.76430702 75.7115878 -174.6875 72.5625 C-174.64560547 71.70333984 -174.60371094 70.84417969 -174.56054688 69.95898438 C-174.46699312 64.77610611 -175.06433293 60.48405149 -176.80568695 55.5794754 C-180.79893947 44.09206565 -180.57355516 32.96672497 -180.3125 20.9375 C-180.28734665 18.89521007 -180.2645461 16.85288976 -180.24414062 14.81054688 C-180.1897934 9.87292864 -180.10392281 4.93681332 -180 0 C-156.82626034 -0.15378421 -133.65249036 -0.30182064 -110.47867012 -0.4429636 C-99.71932179 -0.50862959 -88.95999158 -0.57619565 -78.20068359 -0.64819336 C-68.82582456 -0.71092202 -59.45095112 -0.77012789 -50.07604301 -0.82505554 C-45.10945206 -0.85427913 -40.14288663 -0.88529924 -35.17633438 -0.92053413 C-30.50613236 -0.95361103 -25.83592585 -0.98199434 -21.1656723 -1.00670624 C-19.44751511 -1.01663807 -17.72936703 -1.02831609 -16.01123428 -1.04183006 C-13.67351413 -1.05996172 -11.33584295 -1.07192949 -8.99807739 -1.08229065 C-7.68728777 -1.09058679 -6.37649815 -1.09888292 -5.02598763 -1.10743046 C-2 -1 -2 -1 0 0 Z " fill="#040302" transform="translate(723,396)"/>
<path d="M0 0 C57.09 0 114.18 0 173 0 C170.23582104 4.83731319 167.94043463 8.50548052 164.46484375 12.6171875 C159.68706217 20.38904554 159.66570886 28.02992995 159.9375 36.9375 C160.13177141 44.0924746 160.06536532 50.57789663 158.45629883 57.5637207 C157.64428912 61.89921822 157.79035918 66.23018843 157.875 70.625 C157.88402344 71.53378906 157.89304687 72.44257813 157.90234375 73.37890625 C157.92557875 75.58623099 157.95823654 77.79296166 158 80 C157.10539063 79.66226563 156.21078125 79.32453125 155.2890625 78.9765625 C144.96897438 75.16979225 135.713354 72.82621847 124.6640625 72.63671875 C119.06858322 71.66437 114.17166682 69.29410999 109 67 C106.65646004 65.98258898 104.31270281 64.96567829 101.96875 63.94921875 C98.81996251 62.57644555 95.67229234 61.20111643 92.52600098 59.82263184 C85.16791043 56.60197785 77.79866667 53.49443949 70.26831055 50.69238281 C61.6020848 47.44937444 55.34544637 43.93997468 49 37 C44.43780748 32.09361411 39.8346167 28.3029401 34.125 24.8125 C27.94558317 20.92534833 21.89238816 16.91134685 15.9375 12.6875 C15.26025879 12.20837158 14.58301758 11.72924316 13.88525391 11.2355957 C10.40250762 8.75667964 6.94463319 6.24393447 3.50390625 3.70703125 C2.83302979 3.21307861 2.16215332 2.71912598 1.47094727 2.21020508 C0.98553467 1.8108374 0.50012207 1.41146973 0 1 C0 0.67 0 0.34 0 0 Z " fill="#040302" transform="translate(300,396)"/>
<path d="M0 0 C0.33 0 0.66 0 1 0 C1.10414253 5.75098214 1.20116938 11.35450392 0 17 C-0.66 17.33 -1.32 17.66 -2 18 C-2.05382106 15.37472811 -2.09358313 12.75055287 -2.125 10.125 C-2.14175781 9.37863281 -2.15851562 8.63226562 -2.17578125 7.86328125 C-2.1933959 5.90805539 -2.10320189 3.95257979 -2 2 C-1.34 1.34 -0.68 0.68 0 0 Z " fill="#F1F2F1" transform="translate(540,1020)"/>
<path d="M0 0 C1.65 0.99 3.3 1.98 5 3 C4.67 3.99 4.34 4.98 4 6 C3.34 6 2.68 6 2 6 C1.67 7.65 1.34 9.3 1 11 C0.67 11 0.34 11 0 11 C0 7.37 0 3.74 0 0 Z " fill="#171716" transform="translate(540,473)"/>
<path d="M0 0 C-0.33 0.66 -0.66 1.32 -1 2 C-4.96 1.67 -8.92 1.34 -13 1 C-13 0.67 -13 0.34 -13 0 C-11.39679026 -0.19551338 -9.79237014 -0.38111983 -8.1875 -0.5625 C-7.29417969 -0.66691406 -6.40085937 -0.77132813 -5.48046875 -0.87890625 C-3 -1 -3 -1 0 0 Z " fill="#0C0C0B" transform="translate(473,397)"/>
</svg>
